Coordinates
version=1
nRows=34
nColumns=38
inDegrees=no

Units are S.I. units (second, meters, Newtons, ...)
If the header above contains a line with 'inDegrees', this indicates whether rotational values are in degrees (yes) or radians (no).

endheader
time	pelvis_tilt	pelvis_list	pelvis_rotation	pelvis_tx	pelvis_ty	pelvis_tz	hip_flexion_r	hip_adduction_r	hip_rotation_r	knee_angle_r	ankle_angle_r	subtalar_angle_r	mtp_angle_r	hip_flexion_l	hip_adduction_l	hip_rotation_l	knee_angle_l	ankle_angle_l	subtalar_angle_l	mtp_angle_l	lumbar_extension	lumbar_bending	lumbar_rotation	arm_flex_r	arm_add_r	arm_rot_r	elbow_flex_r	pro_sup_r	wrist_flex_r	wrist_dev_r	arm_flex_l	arm_add_l	arm_rot_l	elbow_flex_l	pro_sup_l	wrist_flex_l	wrist_dev_l
3.64251	0.128538	-0.0147108	-3.05977	-0.219589	0.871754	0.0212207	0.684151	-0.352874	-0.361097	1.01413	0.370957	0	0	0.72835	-0.139794	-0.107341	0.994372	0.374851	0	0	-0.231331	-0.0200731	-0.0344424	0.921359	-0.555214	1.05445	1.79932	1.55434	0	0	1.08548	-0.373366	1.14622	1.69757	1.56188	0	0
3.65248	0.128078	-0.0145009	-3.05864	-0.221332	0.876715	0.0208183	0.669599	-0.346782	-0.364795	0.991911	0.362903	0	0	0.714247	-0.137476	-0.106699	0.971653	0.366195	0	0	-0.226814	-0.0203356	-0.0330515	0.908161	-0.555388	1.05368	1.79795	1.55413	0	0	1.07471	-0.372673	1.14841	1.69437	1.56173	0	0
3.66246	0.127637	-0.0142717	-3.05759	-0.223101	0.881661	0.0204251	0.654971	-0.340528	-0.368408	0.969279	0.354581	0	0	0.699957	-0.135165	-0.106005	0.948508	0.35735	0	0	-0.222246	-0.0205497	-0.0315496	0.895099	-0.555507	1.05325	1.79646	1.55392	0	0	1.0639	-0.371982	1.15063	1.69094	1.56157	0	0
3.67244	0.127204	-0.0140266	-3.05661	-0.224897	0.886585	0.0200443	0.640239	-0.33415	-0.371965	0.946238	0.346019	0	0	0.685473	-0.132836	-0.105241	0.924936	0.348314	0	0	-0.217633	-0.0207144	-0.0299724	0.882177	-0.555558	1.05313	1.79482	1.55371	0	0	1.05306	-0.371304	1.15286	1.68726	1.56141	0	0
3.68242	0.126777	-0.0137717	-3.05567	-0.226721	0.89148	0.0196778	0.625394	-0.327678	-0.375478	0.922798	0.33724	0	0	0.670793	-0.130472	-0.104399	0.90094	0.339083	0	0	-0.212974	-0.0208367	-0.0283483	0.869385	-0.555531	1.05331	1.793	1.5535	0	0	1.04216	-0.370652	1.15508	1.68331	1.56125	0	0
3.6924	0.12636	-0.0135161	-3.05476	-0.228573	0.896337	0.0193269	0.61044	-0.321139	-0.378947	0.898973	0.328259	0	0	0.655922	-0.12806	-0.103482	0.876526	0.329656	0	0	-0.208252	-0.0209305	-0.0266967	0.856698	-0.555422	1.05375	1.79099	1.5533	0	0	1.03121	-0.370025	1.1573	1.67908	1.56109	0	0
3.70238	0.125964	-0.0132699	-3.05388	-0.230456	0.901146	0.0189919	0.595392	-0.314552	-0.382363	0.874778	0.319081	0	0	0.640871	-0.125595	-0.102504	0.851706	0.320036	0	0	-0.203444	-0.0210133	-0.0250297	0.844077	-0.555227	1.05443	1.78873	1.5531	0	0	1.02021	-0.369415	1.15955	1.67452	1.56093	0	0
3.71236	0.125599	-0.0130399	-3.05303	-0.232372	0.905897	0.0186725	0.580267	-0.307929	-0.385711	0.85023	0.309706	0	0	0.625649	-0.12308	-0.101486	0.82649	0.31023	0	0	-0.198524	-0.0210988	-0.0233498	0.831484	-0.554937	1.05529	1.78621	1.55292	0	0	1.00916	-0.368805	1.16189	1.66959	1.56077	0	0
3.72234	0.125261	-0.0128236	-3.05221	-0.234323	0.910582	0.0183679	0.565065	-0.301261	-0.38897	0.825334	0.300128	0	0	0.610248	-0.120537	-0.100451	0.800891	0.300249	0	0	-0.193489	-0.0211866	-0.0216482	0.818892	-0.554543	1.05629	1.78338	1.55276	0	0	0.998072	-0.368176	1.16436	1.66428	1.5606	0	0
3.73232	0.124933	-0.0126113	-3.05146	-0.236308	0.915192	0.0180778	0.549774	-0.294527	-0.39212	0.800089	0.290338	0	0	0.59465	-0.117989	-0.0994151	0.77492	0.290104	0	0	-0.188354	-0.0212627	-0.0199111	0.806293	-0.554041	1.05743	1.7802	1.55262	0	0	0.986951	-0.367504	1.16702	1.65855	1.56043	0	0
3.7423	0.12459	-0.012393	-3.05078	-0.238329	0.91972	0.0178026	0.534366	-0.287705	-0.395141	0.774488	0.280332	0	0	0.578827	-0.115459	-0.0983825	0.74859	0.279807	0	0	-0.183147	-0.021307	-0.0181284	0.793693	-0.55343	1.05869	1.77664	1.5525	0	0	0.975806	-0.366772	1.16992	1.65237	1.56026	0	0
3.75228	0.124202	-0.0121595	-3.05021	-0.240385	0.924162	0.0175434	0.51881	-0.280775	-0.398015	0.748526	0.270114	0	0	0.562747	-0.112958	-0.0973475	0.721908	0.269368	0	0	-0.177903	-0.021297	-0.016295	0.781108	-0.552706	1.06012	1.77263	1.55241	0	0	0.964646	-0.365965	1.17312	1.64573	1.56008	0	0
3.76226	0.12373	-0.0118998	-3.04974	-0.242475	0.928511	0.0173014	0.503062	-0.273714	-0.400722	0.722194	0.259689	0	0	0.546367	-0.110502	-0.096298	0.694888	0.258801	0	0	-0.172669	-0.0212056	-0.0144062	0.768571	-0.551864	1.06173	1.76809	1.55235	0	0	0.953482	-0.365071	1.17665	1.63861	1.5599	0	0
3.77224	0.123135	-0.0116016	-3.04943	-0.244598	0.932762	0.0170775	0.487079	-0.266498	-0.403238	0.695483	0.249062	0	0	0.529648	-0.108103	-0.0952186	0.667543	0.248118	0	0	-0.167495	-0.0210046	-0.01246	0.756119	-0.55089	1.06357	1.76297	1.55232	0	0	0.942329	-0.364082	1.18056	1.63096	1.55971	0	0
3.78222	0.122379	-0.0112551	-3.04927	-0.246754	0.936908	0.0168723	0.470824	-0.259113	-0.405546	0.668398	0.238239	0	0	0.512558	-0.105774	-0.0940926	0.639895	0.23733	0	0	-0.162424	-0.0206716	-0.0104597	0.743791	-0.549767	1.06568	1.75716	1.55232	0	0	0.931207	-0.362993	1.18487	1.62273	1.55952	0	0
3.7922	0.121436	-0.0108526	-3.04928	-0.24894	0.940941	0.0166858	0.454276	-0.251552	-0.40763	0.640954	0.22723	0	0	0.495081	-0.103523	-0.0929033	0.611975	0.226452	0	0	-0.157484	-0.0201907	-0.00841077	0.731615	-0.548476	1.06809	1.75059	1.55234	0	0	0.920138	-0.361795	1.18963	1.61388	1.55931	0	0
3.80218	0.12029	-0.010389	-3.04947	-0.251157	0.944852	0.0165182	0.437428	-0.243827	-0.409496	0.613183	0.216047	0	0	0.477216	-0.101357	-0.0916307	0.58382	0.215497	0	0	-0.152686	-0.019553	-0.00632071	0.719607	-0.547002	1.07082	1.74316	1.55236	0	0	0.909141	-0.360471	1.19486	1.60435	1.5591	0	0
3.81216	0.118935	-0.00985896	-3.04983	-0.253404	0.948628	0.0163692	0.420292	-0.235954	-0.411161	0.585137	0.204717	0	0	0.458984	-0.0992835	-0.0902564	0.555483	0.204492	0	0	-0.148027	-0.018754	-0.00419433	0.707768	-0.545335	1.07385	1.73479	1.55236	0	0	0.898239	-0.359	1.20056	1.59406	1.55888	0	0
3.82214	0.117368	-0.00925528	-3.05034	-0.255679	0.952256	0.0162386	0.402885	-0.227957	-0.412657	0.556874	0.193269	0	0	0.44042	-0.0973131	-0.0887541	0.527028	0.193468	0	0	-0.1435	-0.0177894	-0.00203093	0.696084	-0.543478	1.07718	1.72544	1.55229	0	0	0.887456	-0.35735	1.20677	1.58297	1.55866	0	0
3.83211	0.115598	-0.00857214	-3.05099	-0.257981	0.955721	0.0161268	0.38524	-0.219866	-0.414026	0.528474	0.181752	0	0	0.421576	-0.0954526	-0.0870918	0.498534	0.182467	0	0	-0.139086	-0.0166569	0.00016318	0.684531	-0.541447	1.08075	1.71508	1.55211	0	0	0.876806	-0.355485	1.21348	1.57103	1.55844	0	0
3.84209	0.11364	-0.00780794	-3.05174	-0.260308	0.959008	0.0160351	0.367406	-0.211728	-0.415319	0.50004	0.170237	0	0	0.402525	-0.0937039	-0.0852373	0.470098	0.171545	0	0	-0.134759	-0.0153574	0.00236259	0.673089	-0.539257	1.08454	1.70372	1.55176	0	0	0.866295	-0.353385	1.22067	1.55821	1.55821	0	0
3.85207	0.111523	-0.00696821	-3.05255	-0.262657	0.962098	0.0159654	0.349458	-0.203605	-0.416593	0.471708	0.158817	0	0	0.383363	-0.0920643	-0.0831712	0.441835	0.160769	0	0	-0.130486	-0.0138957	0.00451007	0.661754	-0.536906	1.08854	1.69137	1.55113	0	0	0.855902	-0.351054	1.22831	1.54452	1.55801	0	0
3.86205	0.109267	-0.00606554	-3.05335	-0.265023	0.964977	0.0159198	0.331471	-0.195568	-0.417901	0.443627	0.147599	0	0	0.364184	-0.0905264	-0.0808862	0.413869	0.150213	0	0	-0.126247	-0.012284	0.00653769	0.650533	-0.534386	1.09272	1.67805	1.55016	0	0	0.845608	-0.34851	1.23635	1.52998	1.55782	0	0
3.87203	0.106876	-0.00511664	-3.05411	-0.2674	0.96763	0.0159002	0.313506	-0.187687	-0.419289	0.415948	0.136686	0	0	0.345069	-0.0890824	-0.0783908	0.38633	0.139955	0	0	-0.122053	-0.0105375	0.00837355	0.639451	-0.531689	1.09709	1.66379	1.54872	0	0	0.835396	-0.345773	1.24473	1.51463	1.55768	0	0
3.88201	0.104334	-0.00413706	-3.05479	-0.269781	0.97005	0.0159074	0.295607	-0.180016	-0.420768	0.388813	0.126172	0	0	0.32607	-0.087733	-0.0757156	0.359344	0.130074	0	0	-0.117951	-0.00866729	0.00995401	0.628555	-0.5288	1.10166	1.64863	1.54672	0	0	0.825256	-0.342874	1.25342	1.49852	1.55759	0	0
3.89199	0.101605	-0.00313998	-3.05539	-0.272154	0.972232	0.0159409	0.277801	-0.172589	-0.422316	0.362348	0.11613	0	0	0.307218	-0.0864878	-0.0729133	0.333029	0.120643	0	0	-0.11402	-0.00667882	0.0112285	0.617923	-0.5257	1.10646	1.63259	1.54407	0	0	0.815177	-0.339843	1.26236	1.4817	1.55758	0	0
3.90197	0.0986482	-0.00213735	-3.0559	-0.274511	0.974174	0.0159987	0.26011	-0.165429	-0.423884	0.336664	0.106618	0	0	0.288533	-0.0853602	-0.0700504	0.307497	0.111732	0	0	-0.11035	-0.00457582	0.0121562	0.607645	-0.522363	1.11154	1.61569	1.54069	0	0	0.805146	-0.336716	1.27149	1.46423	1.55767	0	0
3.91195	0.0954265	-0.00113616	-3.05635	-0.27684	0.975879	0.0160775	0.242553	-0.158541	-0.425405	0.311847	0.0976789	0	0	0.270033	-0.0843688	-0.0671975	0.282856	0.103402	0	0	-0.107035	-0.00235745	0.0127053	0.597816	-0.518761	1.11697	1.59795	1.53656	0	0	0.79514	-0.333528	1.28076	1.44615	1.5579	0	0
3.92193	0.0919077	-0.00013592	-3.05675	-0.279132	0.977355	0.0161729	0.225146	-0.151915	-0.426806	0.287965	0.0893346	0	0	0.251744	-0.0835388	-0.0644241	0.259215	0.0957099	0	0	-0.104163	-1.71217e-05	0.0128569	0.588526	-0.514863	1.12282	1.57935	1.53171	0	0	0.785139	-0.330306	1.2901	1.42751	1.55827	0	0
3.93191	0.0880739	0.00087026	-3.05713	-0.281376	0.978611	0.0162792	0.207917	-0.145531	-0.428005	0.265075	0.0815951	0	0	0.233714	-0.0829004	-0.0617933	0.236696	0.0887107	0	0	-0.101808	0.00245395	0.0126088	0.579855	-0.510646	1.12916	1.5599	1.52617	0	0	0.775122	-0.327069	1.29947	1.40833	1.5588	0	0
3.94189	0.0839272	0.00189269	-3.05754	-0.283563	0.97966	0.0163898	0.190917	-0.139366	-0.428927	0.24323	0.0744611	0	0	0.216021	-0.0824836	-0.0593541	0.215438	0.0824542	0	0	-0.100018	0.0050617	0.0119728	0.571858	-0.506088	1.13605	1.53958	1.52001	0	0	0.765075	-0.323821	1.30884	1.38859	1.55951	0	0
3.95187	0.0794925	0.00294048	-3.05798	-0.285683	0.980516	0.0164976	0.174221	-0.133403	-0.429512	0.222494	0.0679296	0	0	0.198782	-0.0823118	-0.0571367	0.195601	0.0769859	0	0	-0.0988118	0.00780393	0.0109701	0.564565	-0.501173	1.14354	1.51838	1.51331	0	0	0.754996	-0.320558	1.31822	1.36825	1.56037	0	0
3.96185	0.0748149	0.0040169	-3.05849	-0.287729	0.981198	0.0165956	0.157932	-0.127643	-0.42972	0.202948	0.0619992	0	0	0.182149	-0.0823958	-0.0551512	0.177366	0.0723458	0	0	-0.0981794	0.0106659	0.00962465	0.55798	-0.495885	1.15165	1.49625	1.50616	0	0	0.744894	-0.317261	1.32764	1.34725	1.56135	0	0
3.97183	0.0699534	0.00511801	-3.05907	-0.28969	0.981724	0.0166777	0.142176	-0.122104	-0.429537	0.184697	0.056676	0	0	0.1663	-0.0827333	-0.0533898	0.160929	0.068568	0	0	-0.0980907	0.01362	0.00796015	0.552087	-0.490208	1.16039	1.47316	1.49863	0	0	0.734792	-0.313899	1.33716	1.32548	1.56236	0	0
